<?xml version="1.0" encoding="utf-8"?>
<!-- Generator: Adobe Illustrator 22.0.0, SVG Export Plug-In . SVG Version: 6.00 Build 0)  -->
<svg version="1.1" id="图层_1" xmlns="http://www.w3.org/2000/svg" xmlns:xlink="http://www.w3.org/1999/xlink" x="0px" y="0px"
	 viewBox="0 0 480 640" style="enable-background:new 0 0 480 640;" xml:space="preserve">
<style type="text/css">
	.st0{fill:url(#SVGID_1_);}
	.st1{fill:#FFFFFF;}
</style>
<linearGradient id="SVGID_1_" gradientUnits="userSpaceOnUse" x1="58.2042" y1="320.179" x2="429" y2="320.179">
	<stop  offset="0" style="stop-color:#689CF9"/>
	<stop  offset="1" style="stop-color:#F9BBDD"/>
</linearGradient>
<path class="st0" d="M55.4,126.9v386.6c0,16.1,17.4,26.2,31.4,18.1l334.8-193.3c14-8.1,14-28.2,0-36.3L86.8,108.7
	C72.8,100.7,55.4,110.8,55.4,126.9z"/>
<path class="st1" d="M110.5,215.5c0,0,0,178.5,0,237.8c0,0,88.1-50.3,92.3-53.3c4.2-3,12.9-5.2,17.7,1.7c4.7,6.9,1.1,14.6-2.9,17.3
	s-114.2,65.5-114.2,65.5c-15.2,4.5-16.4-10.3-16.4-10.3s0-303,0-306.8c0-3.8,2-13.1,11.1-13.1c6.5,0,12.3,4.3,12.3,11.6L110.5,215.5
	z"/>
<path class="st1" d="M117.9,221.8c17.3,29.2,75.7,132,81.3,141.4c6.6,10.9,16.1,8.1,20,4.7c3.9-3.4,71.8-59.2,71.8-59.2
	s-0.3,42.4-0.3,46.5c0,5,3.7,11.4,10.9,11.4c10,0,12.8-9.2,12.8-11.4c0-2.3,0.9-64.4,0.9-69.6c0-3.1-2.3-8.7-6.7-11.7
	c-4.1-2.7-10.9-1.7-16.4,2.9c-3.1,2.6-77.9,65.4-77.9,65.4l-96.1-167.1L117.9,221.8z"/>
</svg>
